<?xml version="1.0" standalone="no"?>
<!DOCTYPE svg PUBLIC "-//W3C//DTD SVG 20010904//EN"
 "http://www.w3.org/TR/2001/REC-SVG-20010904/DTD/svg10.dtd">
<svg version="1.0" xmlns="http://www.w3.org/2000/svg"
 width="209.000000pt" height="209.000000pt" viewBox="0 0 209.000000 209.000000"
 preserveAspectRatio="xMidYMid meet">
<metadata>
Created by potrace 1.11, written by Peter Selinger 2001-2013
</metadata>
<g transform="translate(0.000000,209.000000) scale(0.100000,-0.100000)"
fill="#000000" stroke="none">
<path d="M1513 1808 c-86 -13 -157 -45 -201 -91 -57 -59 -172 -197 -172 -206
0 -5 9 -19 21 -32 11 -13 30 -35 42 -49 19 -22 82 -98 139 -165 13 -16 134
-162 143 -173 2 -2 273 323 335 402 41 53 203 249 227 276 12 13 20 26 18 28
-11 12 -488 20 -552 10z"/>
<path d="M103 1800 l-93 -5 53 -66 c28 -36 71 -88 94 -115 23 -27 87 -105 143
-174 56 -69 112 -136 123 -150 12 -14 40 -47 61 -75 22 -27 53 -63 68 -80 15
-16 28 -33 28 -37 0 -5 4 -8 9 -8 7 0 327 377 345 407 4 8 -28 55 -88 127
-104 125 -147 154 -256 175 -55 10 -310 11 -487 1z"/>
<path d="M1008 1417 c-15 -18 -46 -53 -70 -78 -47 -50 -197 -213 -240 -262
-16 -17 -28 -33 -28 -36 0 -6 38 -53 105 -131 22 -26 89 -105 150 -177 60 -72
114 -129 120 -126 5 3 30 28 54 56 24 29 64 75 90 102 26 28 80 88 121 135 41
47 86 95 99 108 l23 23 -23 27 c-13 15 -35 38 -49 53 -27 28 -229 244 -283
303 -18 20 -35 36 -38 36 -2 -1 -16 -15 -31 -33z"/>
<path d="M307 638 l-277 -333 92 -5 c111 -6 497 -4 518 2 8 3 29 8 45 13 68
18 107 48 185 142 78 94 79 97 62 119 -45 59 -335 394 -341 394 -3 0 -131
-150 -284 -332z"/>
<path d="M1408 877 c-42 -50 -85 -101 -95 -112 -91 -101 -184 -218 -176 -224
5 -3 38 -42 73 -86 36 -44 71 -85 80 -92 61 -49 173 -74 334 -75 87 -1 419 11
422 15 3 3 -551 666 -556 666 -3 1 -40 -41 -82 -92z"/>
</g>
</svg>
