<svg width="184" height="184" viewBox="0 0 184 184" fill="none" xmlns="http://www.w3.org/2000/svg">
<rect width="184" height="184" fill="white"/>
<ellipse cx="69.711" cy="131.678" rx="32.4548" ry="32.4548" fill="#0047FF" fill-opacity="0.1"/>
<mask id="path-3-inside-1" fill="white">
<ellipse cx="138.4" cy="52.4829" rx="4.9621" ry="4.9621"/>
</mask>
<path d="M135.362 52.4829C135.362 50.8051 136.722 49.445 138.4 49.445V65.445C145.559 65.445 151.362 59.6416 151.362 52.4829H135.362ZM138.4 49.445C140.078 49.445 141.438 50.8051 141.438 52.4829H125.438C125.438 59.6416 131.241 65.445 138.4 65.445V49.445ZM141.438 52.4829C141.438 54.1606 140.078 55.5208 138.4 55.5208V39.5208C131.241 39.5208 125.438 45.3241 125.438 52.4829H141.438ZM138.4 55.5208C136.722 55.5208 135.362 54.1606 135.362 52.4829H151.362C151.362 45.3241 145.559 39.5208 138.4 39.5208V55.5208Z" fill="#0047FF" fill-opacity="0.46" mask="url(#path-3-inside-1)"/>
<ellipse cx="37.4335" cy="71.6483" rx="3.21866" ry="3.21866" fill="#0047FF" fill-opacity="0.8"/>
<ellipse cx="129.457" cy="130.217" rx="1.3411" ry="1.34111" fill="#0047FF" fill-opacity="0.4"/>
<ellipse cx="82.4726" cy="23.547" rx="1.87755" ry="1.87755" fill="#0047FF" fill-opacity="0.9"/>
<rect x="58.7105" y="91.3948" width="56.2895" height="54.4737" rx="18" fill="white"/>
<mask id="path-9-outside-2" maskUnits="userSpaceOnUse" x="79.0624" y="62.3274" width="51" height="59" fill="black">
<rect fill="white" x="79.0624" y="62.3274" width="51" height="59"/>
<path d="M128.549 77.9426C128.52 76.4101 128.492 74.9624 128.492 73.5618C128.492 72.4646 127.606 71.575 126.512 71.575C118.041 71.575 111.592 69.1331 106.216 63.89C105.447 63.1397 104.223 63.14 103.454 63.89C98.0792 69.1331 91.631 71.575 83.1609 71.575C82.067 71.575 81.1802 72.4646 81.1802 73.5618C81.1802 74.9627 81.1528 76.4109 81.1235 77.9437C80.852 92.2053 80.4801 111.737 104.187 119.98C104.397 120.053 104.616 120.09 104.835 120.09C105.054 120.09 105.274 120.053 105.484 119.98C129.192 111.737 128.821 92.2046 128.549 77.9426ZM104.835 115.995C84.504 108.586 84.8114 92.3561 85.0842 78.0195C85.1006 77.159 85.1165 76.3251 85.1276 75.5076C93.0607 75.1717 99.4047 72.7602 104.835 68.0146C110.267 72.7602 116.611 75.172 124.545 75.5076C124.556 76.3248 124.572 77.1582 124.588 78.0181C124.861 92.3554 125.168 108.586 104.835 115.995Z"/>
</mask>
<path d="M128.549 77.9426C128.52 76.4101 128.492 74.9624 128.492 73.5618C128.492 72.4646 127.606 71.575 126.512 71.575C118.041 71.575 111.592 69.1331 106.216 63.89C105.447 63.1397 104.223 63.14 103.454 63.89C98.0792 69.1331 91.631 71.575 83.1609 71.575C82.067 71.575 81.1802 72.4646 81.1802 73.5618C81.1802 74.9627 81.1528 76.4109 81.1235 77.9437C80.852 92.2053 80.4801 111.737 104.187 119.98C104.397 120.053 104.616 120.09 104.835 120.09C105.054 120.09 105.274 120.053 105.484 119.98C129.192 111.737 128.821 92.2046 128.549 77.9426ZM104.835 115.995C84.504 108.586 84.8114 92.3561 85.0842 78.0195C85.1006 77.159 85.1165 76.3251 85.1276 75.5076C93.0607 75.1717 99.4047 72.7602 104.835 68.0146C110.267 72.7602 116.611 75.172 124.545 75.5076C124.556 76.3248 124.572 77.1582 124.588 78.0181C124.861 92.3554 125.168 108.586 104.835 115.995Z" fill="#0047FF"/>
<path d="M128.549 77.9426C128.52 76.4101 128.492 74.9624 128.492 73.5618C128.492 72.4646 127.606 71.575 126.512 71.575C118.041 71.575 111.592 69.1331 106.216 63.89C105.447 63.1397 104.223 63.14 103.454 63.89C98.0792 69.1331 91.631 71.575 83.1609 71.575C82.067 71.575 81.1802 72.4646 81.1802 73.5618C81.1802 74.9627 81.1528 76.4109 81.1235 77.9437C80.852 92.2053 80.4801 111.737 104.187 119.98C104.397 120.053 104.616 120.09 104.835 120.09C105.054 120.09 105.274 120.053 105.484 119.98C129.192 111.737 128.821 92.2046 128.549 77.9426ZM104.835 115.995C84.504 108.586 84.8114 92.3561 85.0842 78.0195C85.1006 77.159 85.1165 76.3251 85.1276 75.5076C93.0607 75.1717 99.4047 72.7602 104.835 68.0146C110.267 72.7602 116.611 75.172 124.545 75.5076C124.556 76.3248 124.572 77.1582 124.588 78.0181C124.861 92.3554 125.168 108.586 104.835 115.995Z" stroke="#0047FF" stroke-width="2" mask="url(#path-9-outside-2)"/>
<mask id="path-10-outside-3" maskUnits="userSpaceOnUse" x="92.7001" y="82.3369" width="25" height="19" fill="black">
<rect fill="white" x="92.7001" y="82.3369" width="25" height="19"/>
<path d="M111.92 84.9101L102.248 94.3556L98.1209 90.3247C97.3383 89.5606 96.0694 89.5606 95.2871 90.3247C94.5045 91.0894 94.5045 92.3283 95.2871 93.0926L100.831 98.5074C101.222 98.8894 101.735 99.0804 102.248 99.0804C102.761 99.0804 103.274 98.8894 103.665 98.5074L114.754 87.6779C115.537 86.9135 115.537 85.6743 114.754 84.9103C113.972 84.1459 112.703 84.1457 111.92 84.9101Z"/>
</mask>
<path d="M111.92 84.9101L102.248 94.3556L98.1209 90.3247C97.3383 89.5606 96.0694 89.5606 95.2871 90.3247C94.5045 91.0894 94.5045 92.3283 95.2871 93.0926L100.831 98.5074C101.222 98.8894 101.735 99.0804 102.248 99.0804C102.761 99.0804 103.274 98.8894 103.665 98.5074L114.754 87.6779C115.537 86.9135 115.537 85.6743 114.754 84.9103C113.972 84.1459 112.703 84.1457 111.92 84.9101Z" fill="#85F44B"/>
<path d="M111.92 84.9101L102.248 94.3556L98.1209 90.3247C97.3383 89.5606 96.0694 89.5606 95.2871 90.3247C94.5045 91.0894 94.5045 92.3283 95.2871 93.0926L100.831 98.5074C101.222 98.8894 101.735 99.0804 102.248 99.0804C102.761 99.0804 103.274 98.8894 103.665 98.5074L114.754 87.6779C115.537 86.9135 115.537 85.6743 114.754 84.9103C113.972 84.1459 112.703 84.1457 111.92 84.9101Z" stroke="#85F44B" stroke-width="4" mask="url(#path-10-outside-3)"/>
<path fill-rule="evenodd" clip-rule="evenodd" d="M75.3158 34.5264C64.8224 34.5264 56.3158 43.033 56.3158 53.5264V129.891C56.3158 140.384 64.8224 148.891 75.3158 148.891H102.29C112.783 148.891 121.29 140.384 121.29 129.891V116.652C119.475 118.2 117.417 119.557 115.29 120.691V129.891C115.29 137.071 109.469 142.891 102.29 142.891H75.3158C68.1361 142.891 62.3158 137.071 62.3158 129.891V53.5264C62.3158 46.3467 68.1361 40.5264 75.3158 40.5264H102.29C109.469 40.5264 115.29 46.3467 115.29 53.5264V64.6633C116.998 65.3665 119.037 66.0174 121.29 66.4183V53.5264C121.29 43.033 112.783 34.5264 102.29 34.5264H75.3158Z" fill="#0047FF"/>
<rect x="69.6362" y="48.584" width="18.0607" height="7.37173" rx="3.68587" fill="#85F44B"/>
</svg>
