<svg width="177" height="177" viewBox="0 0 177 177" fill="none" xmlns="http://www.w3.org/2000/svg">
<rect width="177" height="177" fill="white"/>
<ellipse cx="60.3761" cy="73.277" rx="31.2201" ry="31.2201" fill="#0047FF" fill-opacity="0.1"/>
<ellipse cx="126.3" cy="126.558" rx="14.062" ry="14.062" fill="#0047FF" fill-opacity="0.13"/>
<mask id="path-4-inside-1" fill="white">
<ellipse cx="141.523" cy="66.1815" rx="4.77333" ry="4.77333"/>
</mask>
<path d="M138.296 66.1815C138.296 64.3995 139.741 62.9549 141.523 62.9549V78.9549C148.577 78.9549 154.296 73.236 154.296 66.1815H138.296ZM141.523 62.9549C143.305 62.9549 144.749 64.3995 144.749 66.1815H128.749C128.749 73.236 134.468 78.9549 141.523 78.9549V62.9549ZM144.749 66.1815C144.749 67.9636 143.305 69.4082 141.523 69.4082V53.4082C134.468 53.4082 128.749 59.127 128.749 66.1815H144.749ZM141.523 69.4082C139.741 69.4082 138.296 67.9636 138.296 66.1815H154.296C154.296 59.127 148.577 53.4082 141.523 53.4082V69.4082Z" fill="#0047FF" fill-opacity="0.46" mask="url(#path-4-inside-1)"/>
<ellipse cx="46.1851" cy="114.56" rx="3.09621" ry="3.0962" fill="#0047FF" fill-opacity="0.8"/>
<ellipse cx="82.8236" cy="146.038" rx="1.29008" ry="1.29009" fill="#0047FF" fill-opacity="0.4"/>
<ellipse cx="99.5948" cy="36.1225" rx="1.80612" ry="1.80613" fill="#0047FF" fill-opacity="0.9"/>
<path fill-rule="evenodd" clip-rule="evenodd" d="M106.545 105.158V110.819H104.658C102.643 110.819 100.885 112.283 100.885 114.278V130.001C100.885 131.995 102.643 133.46 104.658 133.46H127.299C129.315 133.46 131.073 131.995 131.073 130.001V114.278C131.073 112.283 129.315 110.819 127.299 110.819H125.413V105.158C125.413 99.9482 121.189 95.7246 115.979 95.7246C110.769 95.7246 106.545 99.9482 106.545 105.158ZM121.639 105.158V110.819H110.319V105.158C110.319 102.032 112.853 99.4981 115.979 99.4981C119.105 99.4981 121.639 102.032 121.639 105.158ZM104.658 129.686V114.592H127.299V129.686H104.658ZM117.866 122.139C117.866 123.181 117.021 124.026 115.979 124.026C114.937 124.026 114.092 123.181 114.092 122.139C114.092 121.097 114.937 120.252 115.979 120.252C117.021 120.252 117.866 121.097 117.866 122.139Z" fill="#0047FF"/>
<path fill-rule="evenodd" clip-rule="evenodd" d="M127.359 65.9323L127.36 65.9734C127.544 75.5506 127.754 86.5803 125.245 97.1897C123.794 95.2757 121.494 93.9317 119.534 93.1409C121.196 84.3172 121.018 74.9848 120.848 66.0969L120.846 65.9776C120.82 64.6126 120.795 63.2881 120.777 61.9886C107.732 61.4394 97.2997 57.4928 88.3695 49.7271C79.4402 57.4928 69.0094 61.439 55.9654 61.9886C55.9471 63.3264 55.9211 64.6911 55.8942 66.0991C55.4456 89.5597 54.9402 116.118 88.3695 128.242C92.0303 126.914 95.2841 125.414 98.1757 123.763V131.124C95.5095 132.45 92.6032 133.668 89.4355 134.764C89.0903 134.883 88.7294 134.943 88.3692 134.943C88.0087 134.943 87.6482 134.883 87.3027 134.764C48.324 121.275 48.9353 89.313 49.3817 65.9752L49.3817 65.9751C49.4299 63.4669 49.4751 61.097 49.4751 58.8046C49.4751 57.009 50.9332 55.5534 52.7317 55.5534C66.6585 55.5534 77.2609 51.5573 86.099 42.9775C87.3631 41.7502 89.375 41.7498 90.6397 42.9775C99.4785 51.5573 110.083 55.5534 124.01 55.5534C125.809 55.5534 127.267 57.009 127.267 58.8046C127.267 61.084 127.312 63.4397 127.359 65.9323Z" fill="#0047FF"/>
<path d="M99.4542 77.3162L83.7368 92.8544L77.0297 86.2234C75.758 84.9666 73.696 84.9666 72.4247 86.2234C71.1529 87.4814 71.1529 89.5194 72.4247 90.7769L81.4342 99.6843C82.0698 100.313 82.9036 100.627 83.7368 100.627C84.5699 100.627 85.4037 100.313 86.0393 99.6843L104.059 81.8694C105.331 80.612 105.331 78.5733 104.059 77.3165C102.788 76.0591 100.726 76.0588 99.4542 77.3162Z" fill="#85F44B"/>
<rect x="104.755" y="114.56" width="22.4475" height="14.965" fill="white"/>
<circle cx="116.108" cy="122.042" r="2.83819" fill="#85F44B"/>
</svg>
