<svg width="190" height="190" viewBox="0 0 190 190" fill="none" xmlns="http://www.w3.org/2000/svg">
<rect width="189.795" height="189.795" fill="white"/>
<mask id="path-2-inside-1" fill="white">
<ellipse cx="29.8231" cy="75.311" rx="5.11838" ry="5.11838"/>
</mask>
<path d="M26.9415 75.311C26.9415 73.7195 28.2316 72.4294 29.8231 72.4294V88.4294C37.0682 88.4294 42.9415 82.5561 42.9415 75.311H26.9415ZM29.8231 72.4294C31.4146 72.4294 32.7047 73.7195 32.7047 75.311H16.7047C16.7047 82.5561 22.578 88.4294 29.8231 88.4294V72.4294ZM32.7047 75.311C32.7047 76.9025 31.4146 78.1926 29.8231 78.1926V62.1926C22.578 62.1926 16.7047 68.0659 16.7047 75.311H32.7047ZM29.8231 78.1926C28.2316 78.1926 26.9415 76.9025 26.9415 75.311H42.9415C42.9415 68.0659 37.0682 62.1926 29.8231 62.1926V78.1926Z" fill="#3778FF" fill-opacity="0.46" mask="url(#path-2-inside-1)"/>
<ellipse cx="74.297" cy="35.4753" rx="3.32003" ry="3.32003" fill="#3778FF" fill-opacity="0.8"/>
<ellipse cx="120.201" cy="150.004" rx="1.38334" ry="1.38334" fill="#3778FF" fill-opacity="0.4"/>
<ellipse cx="167.419" cy="116.441" rx="1.93668" ry="1.93668" fill="#3778FF" fill-opacity="0.9"/>
<circle cx="124.7" cy="80.3885" r="38.0374" fill="#0047FF" fill-opacity="0.1"/>
<rect x="46.0173" y="59.7422" width="94.2311" height="70.7028" rx="27" fill="white" stroke="#0047FF" stroke-width="6"/>
<path d="M144.17 85.094L144.17 82.094L141.17 82.094L123.327 82.094C117.664 82.094 113.073 86.6851 113.073 92.3485C113.073 98.012 117.664 102.603 123.327 102.603L141.17 102.603L144.17 102.603L144.17 99.6031L144.17 85.094Z" fill="white" stroke="#0047FF" stroke-width="6"/>
<ellipse cx="49.9788" cy="127.622" rx="15.0785" ry="15.0785" fill="#0047FF" fill-opacity="0.13"/>
<rect x="81.9569" y="87.0547" width="7.84276" height="20.7833" rx="3.92138" transform="rotate(90 81.9569 87.0547)" fill="#85F44B"/>
<rect x="95.2896" y="99.603" width="7.84276" height="20.7833" rx="3.92138" transform="rotate(90 95.2896 99.603)" fill="#85F44B"/>
<rect x="120.779" y="88.2312" width="7.84276" height="8.62704" rx="3.92138" fill="#B2F291"/>
</svg>
