<svg width="77" height="91" viewBox="0 0 77 91" fill="none" xmlns="http://www.w3.org/2000/svg">
<path d="M76.3665 23.4308C76.3197 20.9739 76.2753 18.653 76.2753 16.4076C76.2753 14.6485 74.8495 13.2224 73.09 13.2224C59.4678 13.2224 49.0962 9.30751 40.4513 0.901894C39.2143 -0.300837 37.2465 -0.300425 36.0102 0.901894C27.3659 9.30751 16.996 13.2224 3.37471 13.2224C1.61562 13.2224 0.189489 14.6485 0.189489 16.4076C0.189489 18.6534 0.145321 20.9752 0.0981794 23.4325C-0.338409 46.2964 -0.93638 77.6099 37.1874 90.8244C37.5253 90.9415 37.878 91 38.2306 91C38.5829 91 38.9358 90.9415 39.2734 90.8244C77.4002 77.6096 76.8032 46.2952 76.3665 23.4308ZM38.2309 84.4346C5.53472 72.5573 6.02906 46.5381 6.46779 23.554C6.49412 22.1745 6.51958 20.8376 6.53744 19.527C19.2953 18.9885 29.4974 15.1225 38.2309 7.51444C46.9652 15.1225 57.1688 18.9889 69.9278 19.527C69.9455 20.8372 69.9711 22.1733 69.9972 23.5519C70.4357 46.537 70.9295 72.5567 38.2309 84.4346Z" fill="white"/>
<path d="M49.1995 34.4348L33.826 49.8075L27.2657 43.2471C26.0217 42.0037 24.0049 42.0037 22.7613 43.2471C21.5174 44.4917 21.5174 46.508 22.7613 47.752L31.5738 56.5646C32.1955 57.1863 33.011 57.4972 33.826 57.4972C34.6409 57.4972 35.4564 57.1863 36.0781 56.5646L53.7036 38.9395C54.9479 37.6955 54.9479 35.6786 53.7038 34.4351C52.4604 33.1911 50.4435 33.1908 49.1995 34.4348Z" fill="white"/>
</svg>
